<svg version="1.1" x="0px" y="0px" viewBox="10 150 1000 620" enable-background="new 0 0 1000 1000" xmlns="http://www.w3.org/2000/svg">
  <defs></defs>
  <g>
    <g transform="translate(0.000000,290.000000) scale(0.100000,-0.100000)">
      <path d="M301.5,649.7c-56-27-115.9-77.3-144.8-119.7l-48.3-71.5l-5.8-2172.7C96.8-4128.3,89-3991.2,224.2-4109c86.9-75.3,175.8-98.5,392-98.5c173.8,0,183.5,1.9,237.6,56c32.8,34.8,56,77.2,56,108.1c0,30.9-23.2,73.4-56,108.1c-54.1,54.1-63.8,56-241.4,56H427v2124.4V369.7l4293.3-3.9l4291.3-5.8l150.6-71.5c156.4-75.3,341.8-231.8,394-332.2c48.3-92.7,27-264.6-46.4-353.4C9367-576.7,9254.9-590.2,7951.3-609.5l-888.4-11.6l-44.4-44.4l-46.3-46.3l5.8-807.3l5.8-807.3l52.1-79.2c30.9-46.3,85-94.6,135.2-119.7c83-40.6,104.3-40.6,1133.7-40.6h1046.7l46.4-100.4c56-125.5,144.8-426.8,144.8-496.3c0-56-160.3-536.9-189.3-565.9c-9.7-9.7-125.5-44.4-256.9-75.3c-258.8-59.9-326.4-104.3-326.4-202.8c0-56,94.6-162.2,144.8-162.2c61.8,0,498.3,117.8,567.8,154.5c104.3,52.1,150.6,114,214.4,274.2c127.5,334.1,160.3,469.3,150.6,629.6c-11.6,164.2-100.4,463.5-191.2,645.1c-30.9,59.9-280,428.7-556.2,820.8C8696.8-1073,8606-932,8631.1-922.4c17.4,5.8,168,17.4,332.2,23.2c424.9,13.5,589,73.4,776.4,282C9853.6-491.7,9900-362.3,9900-171.1c0,121.7-9.7,166.1-56,260.7c-112,226-384.3,440.3-697.2,546.5l-154.5,52.1l-4297.1,5.8l-4299,3.9L301.5,649.7z M8650.4-1559.7c245.3-349.6,453.8-648.9,459.6-666.3c11.6-27-75.3-30.9-884.5-30.9c-672.1,0-901.9,5.8-919.3,23.2c-17.4,17.4-23.2,189.3-23.2,652.8c0,347.6,5.8,637.3,13.5,643.1c5.8,7.7,212.4,13.5,457.7,13.5h448L8650.4-1559.7z" fill="#fff"></path>
      <path d="M1131.9-663.6l-48.3-46.3v-552.4v-552.3l48.3-46.4l46.4-48.3h1044.8H3268l46.3,48.3l48.3,46.4v552.3v552.4l-48.3,46.3l-46.3,48.3H2223.1H1178.3L1131.9-663.6z M3043.9-1262.3v-328.3h-820.8h-820.8l-5.8,309c-1.9,168,0,318.7,3.9,332.2c7.7,21.2,171.9,25.1,826.6,21.2l816.9-5.8V-1262.3z" fill="#fff"></path>
      <path d="M4546.5-652c-50.2-23.2-100.4-67.6-135.2-119.7l-54.1-83l-5.8-1512.2l-5.8-1512.2h-675.9h-677.9l-56-56c-69.5-69.5-71.5-135.2-9.6-208.6l46.3-54.1l1857.9-5.8l1856-3.9l57.9,56c73.4,73.4,73.4,142.9,0,216.3l-56,56h-349.6h-347.6l-5.8,1500.6L5979.5-876l-44.4,77.3c-25.1,42.5-75.3,100.4-114,125.5l-69.5,48.3l-562,5.8C4670.1-615.3,4621.8-617.2,4546.5-652z M5656.9-2405.6l3.9-1473.6h-492.5h-492.5v633.5c0,349.6,5.8,1013.9,13.5,1479.4l11.6,842l475.1-3.9l475.1-5.8L5656.9-2405.6z" fill="#fff"></path>
      <path d="M1788.6-3255.4c-92.7-11.6-245.3-65.7-330.2-115.9c-115.9-65.6-272.3-239.5-332.2-366.9c-46.4-100.4-52.1-133.2-52.1-334.1c0-200.9,5.8-231.7,52.1-334.1c29-61.8,102.4-164.2,162.2-227.9c479-502.1,1319.1-243.4,1438.8,442.3c75.3,424.9-249.1,857.5-697.2,929C1902.5-3241.8,1892.9-3241.8,1788.6-3255.4z M2120.8-3616.5c332.2-170,395.9-583.2,127.5-824.6c-112-102.4-227.9-141-388.2-129.4c-141,9.6-218.2,42.5-322.5,135.2c-112,96.6-152.6,195-154.5,363.1c0,123.6,7.7,158.4,52.1,235.6c63.7,108.1,168,197,276.2,237.5C1809.8-3562.4,2035.8-3572.1,2120.8-3616.5z" fill="#fff"></path>
      <path d="M7650-3263.1c-434.5-71.5-755.1-515.7-677.9-938.6c65.6-359.2,332.2-619.9,697.2-685.6c347.6-59.9,728.1,137.1,890.3,463.5c54.1,112,65.7,154.5,71.5,305.1c9.7,200.9-21.2,324.5-115.9,475.1c-121.7,193.1-351.5,343.8-587.1,382.4C7800.7-3239.9,7796.8-3239.9,7650-3263.1z M7988-3603c185.4-61.8,338-276.2,338-469.3c0-168-106.2-345.7-264.6-438.4c-125.5-73.4-326.4-85-465.4-25.1c-110.1,48.3-241.4,177.7-285.8,280c-32.8,81.1-34.8,239.5-3.9,341.8c40.6,135.2,193.1,280,343.8,326.4C7735-3562.4,7891.5-3568.2,7988-3603z" fill="#fff"></path>
    </g>
  </g>
</svg>